#!OML:ASF I:\Actors\actors\Patient Classification 2\Patient 1\Session 1\actor1.ASF
:FULLY-SPECIFIED
:DEGREES
138
root -0.828475 18.7857 5.29662 5.20993 -3.53088 -2.43647
lowerback 8.20325 1.72949 -3.09985
upperback 2.12543 2.062 0.877305
thorax -2.53661 1.03952 2.43594
lowerneck -14.5485 -2.96899 -4.39022
upperneck 33.9446 -4.497 4.02465
head 14.2492 -1.96164 1.67023
rclavicle -1.03368e-014 -9.93923e-015
rhumerus -5.09154 44.1469 -71.135
rradius 76.7083
rwrist 3.91415
rhand -15.5159 -47.4903
rfingers 7.12502
rthumb 10.6671 -77.1995
lclavicle -1.03368e-014 -9.93923e-015
lhumerus 0.311608 -43.1181 70.8853
lradius 78.216
lwrist 18.092
lhand -12.5507 -25.0196
lfingers 7.12502
lthumb 13.5263 4.52112
rfemur 0 0 0
rtibia 0
rfoot 0 0
rtoes 0
lfemur -8.20327 -7.95739 -10.984
ltibia 20.6694
lfoot -24.4266 18.4502
ltoes -53.1246
139
root -0.827747 18.7836 5.29044 5.10407 -3.7964 -2.36878
lowerback 8.51075 1.88202 -3.25243
upperback 2.16018 2.2426 0.918104
thorax -2.6903 1.13173 2.5363
lowerneck -14.9756 -3.02918 -4.37847
upperneck 34.1522 -4.54806 3.93014
head 14.4409 -1.98746 1.61949
rclavicle 9.24349e-015 -1.78906e-015
rhumerus -4.92289 43.1157 -72.5905
rradius 74.7224
rwrist 3.85964
rhand -15.1459 -47.4956
rfingers 7.12502
rthumb 11.0241 -77.1861
lclavicle 9.24349e-015 -1.78906e-015
lhumerus -0.187535 -42.8958 72.528
lradius 77.3032
lwrist 15.7487
lhand -15.0846 -28.6009
lfingers 7.12502
lthumb 11.0832 1.08649
rfemur 0 0 0
rtibia 0
rfoot 0 0
rtoes 0
lfemur -8.04084 -7.74395 -11.1049
ltibia 20.6552
lfoot -24.3733 18.5492
ltoes -53.3225
140
root -0.827752 18.7806 5.28353 4.9939 -4.03525 -2.27907
lowerback 9.2401 2.06553 -3.17576
upperback 1.9607 2.4633 0.826631
thorax -3.30985 1.25198 2.34634
lowerneck -15.1001 -3.14202 -4.53753
upperneck 34.1907 -4.71903 4.09012
head 14.5075 -2.05679 1.68363
rclavicle 3.17062e-014 -4.37326e-015
rhumerus -5.55541 42.8873 -74.3433
rradius 73.6576
rwrist 1.96816
rhand -18.3475 -47.4643
rfingers 7.12502
rthumb 7.93493 -77.2954
lclavicle 3.17062e-014 -4.37326e-015
lhumerus -0.999082 -42.9375 74.3563
lradius 76.8773
lwrist 14.7534
lhand -17.1797 -31.3406
lfingers 7.12502
lthumb 9.06191 -1.55522
rfemur 0 0 0
rtibia 0
rfoot 0 0
rtoes 0
lfemur -7.88061 -7.45363 -11.2357
ltibia 20.6449
lfoot -24.3521 18.4699
ltoes -53.3477
141
root -0.828154 18.7775 5.278 4.93535 -4.23525 -2.2405
lowerback 9.56646 2.14531 -3.17082
upperback 1.96633 2.55797 0.817367
thorax -3.49052 1.30093 2.31141
lowerneck -15.1392 -3.14052 -4.46946
upperneck 33.8283 -4.66979 3.95156
head 14.3409 -2.04591 1.61753
rclavicle 2.36057e-014 -7.95139e-016
rhumerus -5.35121 42.042 -75.0514
rradius 73.0535
rwrist 4.0526
rhand -13.5518 -46.6704
rfingers 7.12502
rthumb 12.5612 -76.2728
lclavicle 2.36057e-014 -7.95139e-016
lhumerus -1.61139 -42.5147 75.9166
lradius 76.771
lwrist 14.4614
lhand -18.6257 -33.4715
lfingers 7.12502
lthumb 7.66647 -3.63042
rfemur 0 0 0
rtibia 0
rfoot 0 0
rtoes 0
lfemur -7.78373 -7.15537 -11.291
ltibia 20.6553
lfoot -24.3429 18.3425
ltoes -53.324
142
root -0.826863 18.7764 5.27542 4.97007 -4.3344 -2.21162
lowerback 9.80804 2.1393 -3.07499
upperback 1.90077 2.54769 0.737321
thorax -3.68428 1.2977 2.16642
lowerneck -14.87 -2.981 -3.66453
upperneck 33.2721 -4.39965 3.19288
head 13.9675 -1.93576 1.21096
rclavicle 1.92821e-014 -6.75868e-015
rhumerus -5.28198 42.1465 -75.3788
rradius 73.0366
rwrist 3.59982
rhand -11.0628 -45.7247
rfingers 7.12502
rthumb 14.9599 -75.1644
lclavicle 1.92821e-014 -6.75868e-015
lhumerus -2.3065 -42.0861 77.0005
lradius 76.8576
lwrist 14.4643
lhand -19.4475 -34.9339
lfingers 7.12502
lthumb 6.87318 -5.06545
rfemur 0 0 0
rtibia 0
rfoot 0 0
rtoes 0
lfemur -7.82266 -7.04649 -11.3267
ltibia 20.6957
lfoot -24.3242 18.339
ltoes -53.3721
143
root -0.825097 18.7778 5.27552 5.06858 -4.3251 -2.19013
lowerback 9.91502 2.11764 -3.06966
upperback 1.7719 2.51343 0.700452
thorax -3.8739 1.2846 2.12362
lowerneck -14.6505 -2.89555 -3.36397
upperneck 33.2169 -4.3019 2.99901
head 13.875 -1.8851 1.09892
rclavicle -8.59744e-015 7.55382e-015
rhumerus -5.34973 42.9031 -75.0817
rradius 73.5661
rwrist 1.64578
rhand -10.117 -44.4725
rfingers 7.12502
rthumb 15.871 -73.842
lclavicle -8.59744e-015 7.55382e-015
lhumerus -2.89887 -41.9601 77.5326
lradius 77.0706
lwrist 14.9519
lhand -19.6623 -35.5684
lfingers 7.12502
lthumb 6.66583 -5.69333
rfemur 0 0 0
rtibia 0
rfoot 0 0
rtoes 0
lfemur -7.96961 -7.06544 -11.3449
ltibia 20.7624
lfoot -24.3114 18.3565
ltoes -53.4068
144
root -0.822643 18.7801 5.2775 5.15606 -4.1818 -2.1866
lowerback 9.64391 2.05262 -3.16594
upperback 1.84343 2.43039 0.778928
thorax -3.65119 1.24138 2.28054
lowerneck -14.8614 -2.94373 -4.00646
upperneck 33.7338 -4.46914 3.7818
head 14.2038 -1.9283 1.50255
rclavicle -2.91716e-014 2.5842e-015
rhumerus -4.89673 44.0331 -73.7375
rradius 74.4882
rwrist -0.571412
rhand -9.60426 -43.3199
rfingers 7.12502
rthumb 16.3647 -72.6495
lclavicle -2.91716e-014 2.5842e-015
lhumerus -2.86822 -42.0412 77.2435
lradius 77.3947
lwrist 15.9836
lhand -19.3564 -35.6825
lfingers 7.12502
lthumb 6.96113 -5.81695
rfemur 0 0 0
rtibia 0
rfoot 0 0
rtoes 0
lfemur -8.14151 -7.12148 -11.3338
ltibia 20.8366
lfoot -24.2762 18.2879
ltoes -53.375
145
root -0.821043 18.7821 5.2791 5.18941 -3.92605 -2.16287
lowerback 9.35615 1.93566 -3.11395
upperback 1.96579 2.29085 0.7691
thorax -3.35279 1.16607 2.27007
lowerneck -14.8696 -2.94006 -4.21769
upperneck 34.0199 -4.52584 4.10228
head 14.355 -1.93554 1.66491
rclavicle -3.97569e-016 -1.64991e-014
rhumerus -4.22916 45.4807 -71.9077
rradius 75.7244
rwrist -2.9052
rhand -10.5451 -42.5465
rfingers 7.12502
rthumb 15.4586 -71.9484
lclavicle -3.97569e-016 -1.64991e-014
lhumerus -2.50749 -42.354 76.1731
lradius 77.9118
lwrist 17.1845
lhand -18.411 -35.4864
lfingers 7.12502
lthumb 7.87362 -5.653
rfemur 0 0 0
rtibia 0
rfoot 0 0
rtoes 0
lfemur -8.29163 -7.15681 -11.33
ltibia 20.9068
lfoot -24.1766 18.1288
ltoes -53.3351
146
root -0.823681 18.7838 5.27993 5.21977 -3.64339 -2.15341
lowerback 9.19765 1.80237 -2.93331
upperback 2.00975 2.13302 0.659039
thorax -3.19851 1.08328 2.07917
lowerneck -14.708 -2.87315 -4.033
upperneck 34.2074 -4.47975 4.05294
head 14.3941 -1.90056 1.62437
rclavicle 8.69683e-015 1.2921e-014
rhumerus -3.6864 47.3733 -69.8843
rradius 77.441
rwrist -5.89922
rhand -14.6829 -42.1167
rfingers 7.12502
rthumb 11.4706 -71.7829
lclavicle 8.69683e-015 1.2921e-014
lhumerus -2.14397 -42.7608 74.585
lradius 78.6693
lwrist 17.9754
lhand -16.6364 -35.1403
lfingers 7.12502
lthumb 9.58619 -5.3784
rfemur 0 0 0
rtibia 0
rfoot 0 0
rtoes 0
lfemur -8.44753 -7.09472 -11.2899
ltibia 20.9762
lfoot -23.9796 17.8907
ltoes -53.415
147
root -0.827349 18.7841 5.28018 5.22254 -3.33784 -2.18119
lowerback 9.24995 1.66685 -2.62455
upperback 1.98378 1.9753 0.500885
thorax -3.2294 1.00262 1.75911
lowerneck -14.4727 -2.80118 -3.7731
upperneck 34.2833 -4.44443 4.00056
head 14.3639 -1.86224 1.5665
rclavicle -1.28216e-014 4.96962e-015
rhumerus -3.16316 48.3648 -67.6634
rradius 79.2704
rwrist -5.41517
rhand -14.61 -41.1708
rfingers 7.12502
rthumb 11.5409 -70.8331
lclavicle -1.28216e-014 4.96962e-015
lhumerus -1.86267 -43.2193 72.6392
lradius 79.7194
lwrist 18.0669
lhand -14.0858 -34.6048
lfingers 7.12502
lthumb 12.0463 -4.97151
rfemur 0 0 0
rtibia 0
rfoot 0 0
rtoes 0
lfemur -8.58286 -7.03968 -11.2041
ltibia 21.0558
lfoot -23.7521 17.6187
ltoes -53.5568
148
root -0.818394 18.7845 5.2742 5.23817 -3.03244 -2.17982
lowerback 9.42093 1.51335 -2.20584
upperback 1.95398 1.80126 0.331117
thorax -3.32815 0.913318 1.36457
lowerneck -14.2005 -2.73865 -3.48886
upperneck 34.213 -4.39273 3.86285
head 14.2547 -1.82636 1.47045
rclavicle -1.80397e-014 -7.15625e-015
rhumerus -3.19535 48.8128 -65.8359
rradius 81.3841
rwrist -4.3729
rhand -14.8425 -39.9382
rfingers 7.12502
rthumb 11.3166 -69.6129
lclavicle -1.80397e-014 -7.15625e-015
lhumerus -1.60313 -43.5382 70.4849
lradius 81.0533
lwrist 17.6056
lhand -10.6997 -33.731
lfingers 7.12502
lthumb 15.3098 -4.31767
rfemur 0 0 0
rtibia 0
rfoot 0 0
rtoes 0
lfemur -8.77677 -7.21029 -11.1986
ltibia 21.1476
lfoot -23.6211 17.5402
ltoes -53.6404
149
root -0.799935 18.7866 5.26214 5.39269 -2.79342 -2.17646
lowerback 9.22688 1.31639 -1.91479
upperback 2.08912 1.5719 0.280967
thorax -3.06186 0.793719 1.18321
lowerneck -14.1297 -2.61797 -3.25053
upperneck 34.0716 -4.16271 3.53022
head 14.1463 -1.74369 1.3296
rclavicle -1.70955e-014 -5.56597e-015
rhumerus -3.47116 47.9746 -64.478
rradius 83.3801
rwrist -0.662712
rhand -11.5647 -37.187
rfingers 7.12502
rthumb 14.4764 -66.662
lclavicle -1.70955e-014 -5.56597e-015
lhumerus -1.17537 -43.359 68.2038
lradius 82.4915
lwrist 16.7735
lhand -6.76237 -32.8556
lfingers 7.12502
lthumb 19.0994 -3.7734
rfemur 0 0 0
rtibia 0
rfoot 0 0
rtoes 0
lfemur -9.13793 -7.46403 -11.2212
ltibia 21.2404
lfoot -23.5834 17.633
ltoes -53.6943
